<?xml version="1.0" standalone="no"?>
<!DOCTYPE svg PUBLIC "-//W3C//DTD SVG 20010904//EN"
 "http://www.w3.org/TR/2001/REC-SVG-20010904/DTD/svg10.dtd">
<svg version="1.0" xmlns="http://www.w3.org/2000/svg"
 width="820.000000pt" height="256.000000pt" viewBox="0 0 820.000000 256.000000"
 preserveAspectRatio="xMidYMid meet">

<g transform="translate(0.000000,256.000000) scale(0.100000,-0.100000)"
fill="#000000" stroke="none">
<path d="M500 2084 c0 -18 64 -124 89 -148 17 -17 31 -38 31 -48 0 -26 37 -97
71 -135 15 -18 35 -48 44 -67 9 -19 24 -37 33 -41 34 -14 117 -33 124 -29 3 2
9 0 12 -5 3 -5 -5 -12 -19 -15 -14 -4 -25 -11 -25 -16 0 -6 9 -6 24 0 21 8 27
4 50 -29 14 -20 26 -44 26 -52 1 -17 30 -54 50 -62 11 -4 9 -6 -5 -6 -19 -1
-82 -67 -72 -77 2 -3 19 9 37 26 39 37 70 55 70 41 0 -5 -6 -11 -12 -14 -9 -3
-3 -18 18 -48 17 -24 62 -105 100 -179 37 -74 94 -175 126 -225 32 -49 58 -94
59 -100 2 -28 7 -52 14 -67 6 -15 2 -18 -24 -18 -21 0 -46 -13 -83 -43 -94
-76 -166 -126 -172 -120 -3 4 -6 -4 -6 -16 0 -22 2 -21 53 15 28 21 76 56 105
78 59 44 79 42 97 -8 8 -25 4 -31 -60 -91 -39 -36 -71 -60 -73 -55 -7 21 -39
9 -79 -29 -37 -36 -42 -38 -57 -23 -9 9 -16 12 -16 6 0 -5 15 -24 33 -42 l33
-32 19 23 c11 12 19 25 18 29 -1 3 16 13 38 22 22 9 42 23 45 31 4 8 10 15 16
15 5 0 29 13 53 30 24 16 50 30 57 30 7 0 27 -30 42 -66 29 -66 29 -67 11
-100 -9 -18 -16 -36 -15 -40 1 -4 -5 -11 -14 -16 -9 -5 -13 -14 -10 -20 4 -6
2 -8 -4 -4 -16 9 -25 -11 -13 -31 7 -13 4 -20 -11 -28 -12 -5 -28 -21 -37 -35
-13 -20 -14 -23 -1 -16 8 4 -13 -20 -48 -54 -34 -35 -60 -65 -58 -68 3 -2 52
11 108 31 57 19 129 42 160 51 31 9 60 21 63 26 4 6 21 8 39 5 85 -16 282 70
304 133 11 30 97 127 88 99 -8 -27 2 -21 50 28 39 41 74 58 74 37 0 -4 11 -23
24 -41 l25 -33 20 41 c12 23 26 41 32 41 6 0 9 7 6 15 -4 8 -1 17 5 21 7 4 8
3 4 -4 -4 -7 -2 -12 4 -12 6 0 19 14 28 31 30 55 50 76 55 59 2 -8 10 -32 16
-52 14 -45 4 -70 -39 -96 -30 -19 -100 -98 -100 -114 0 -6 9 -8 23 -4 12 4 40
10 62 13 22 3 45 9 50 13 6 4 36 11 67 14 31 4 62 14 69 22 13 16 36 19 41 4
2 -6 46 -1 113 11 102 19 153 25 264 28 39 1 49 6 84 46 22 25 44 45 49 45 5
0 13 -10 18 -22 6 -16 7 -6 3 30 -5 47 -3 56 19 80 14 15 28 34 30 42 6 19 48
-60 48 -89 0 -11 -18 -39 -40 -62 l-40 -42 81 7 c45 4 91 13 104 22 20 13 28
13 47 3 44 -25 280 -8 265 18 -2 5 1 24 9 43 7 19 13 29 13 21 1 -11 4 -11 18
0 14 12 16 12 9 -1 -4 -9 -1 -8 7 3 21 25 35 21 50 -15 24 -58 38 -63 161 -61
61 1 122 6 136 12 l25 10 -30 1 c-17 1 -23 4 -15 7 28 11 101 98 110 133 5 20
11 139 13 265 4 234 3 241 -35 322 -16 34 -65 51 -163 58 -120 9 -163 -1 -193
-45 -22 -32 -24 -42 -18 -115 5 -74 10 -112 35 -283 5 -35 16 -71 23 -79 11
-14 11 -15 -7 -6 -11 6 -24 10 -30 10 -5 -1 -11 12 -13 28 -6 65 -35 200 -45
206 -5 4 -50 7 -98 7 l-89 0 0 -31 c0 -18 5 -49 11 -69 8 -30 15 -38 33 -38
16 0 26 -7 30 -22 9 -34 7 -80 -3 -74 -5 3 -12 -4 -16 -17 -6 -19 -8 -19 -12
-4 -5 19 -23 23 -23 5 0 -9 -3 -9 -11 -1 -13 13 -3 36 12 28 5 -4 9 0 9 7 0 7
3 24 7 37 5 19 2 22 -13 19 -10 -2 -21 -14 -24 -28 -5 -20 -10 -10 -26 50 -15
55 -18 78 -10 86 6 6 11 28 10 50 -2 25 5 48 18 66 17 24 18 33 8 63 -9 27
-17 35 -36 35 -34 0 -40 -23 -24 -94 21 -98 24 -119 13 -113 -13 8 -36 143
-31 182 2 24 8 31 30 33 44 5 65 -13 72 -63 l7 -45 79 0 80 0 -6 33 c-22 133
-45 175 -110 203 -18 7 -85 16 -151 20 -142 8 -163 0 -183 -71 -11 -38 -10
-52 3 -88 8 -23 18 -60 22 -82 3 -22 20 -98 37 -168 27 -115 29 -131 15 -144
-20 -20 -33 -11 -48 35 -6 20 -25 63 -41 94 -15 32 -38 84 -49 115 -12 32 -32
72 -44 88 -12 17 -30 55 -39 85 -9 30 -31 84 -49 120 -37 74 -38 74 -180 85
l-94 7 12 -76 c7 -41 18 -82 25 -91 7 -8 10 -29 7 -47 -4 -31 31 -228 53 -292
6 -16 10 -64 10 -106 0 -43 7 -117 15 -166 17 -93 15 -120 -12 -160 -25 -39
-28 -19 -3 21 25 41 22 74 -20 195 -51 147 -101 247 -146 291 -24 24 -44 48
-44 53 0 5 10 20 22 33 64 68 -37 324 -151 383 -47 23 -55 25 -48 7 3 -7 -1
-26 -8 -42 l-12 -30 -8 25 c-22 71 -48 85 -200 110 -27 4 -59 10 -70 13 -70
19 -156 34 -159 28 -3 -4 5 -27 16 -51 11 -25 33 -81 49 -125 16 -44 38 -92
49 -107 11 -15 20 -42 20 -60 0 -18 10 -53 21 -78 12 -25 34 -81 51 -125 16
-44 39 -90 50 -102 11 -12 18 -29 15 -37 -4 -9 0 -31 9 -51 8 -19 16 -48 18
-63 2 -15 10 -43 19 -62 31 -74 31 -74 -23 -131 -28 -30 -53 -64 -56 -77 -4
-12 -12 -22 -19 -22 -7 0 -15 -7 -19 -15 -8 -22 -21 -18 -34 11 -11 23 -9 30
22 67 39 49 56 100 56 175 0 45 -3 55 -20 59 -22 6 -24 12 -11 45 10 26 -21
142 -45 169 -8 8 -14 25 -14 36 0 23 -93 218 -109 228 -7 3 -29 42 -51 85 -23
46 -52 87 -70 100 -16 12 -30 27 -30 34 0 6 -17 29 -38 49 -36 36 -39 37 -54
20 -8 -10 -21 -35 -28 -55 -6 -21 -16 -38 -21 -38 -13 0 -10 49 6 95 13 36 13
41 -3 53 -50 38 -258 131 -412 183 -96 33 -215 74 -263 91 -49 16 -91 28 -93
25 -3 -3 2 -16 11 -30 32 -50 -5 -39 -58 16 -36 37 -64 57 -87 62 -19 4 -41
12 -47 17 -7 6 -13 8 -13 4 0 -3 -17 1 -37 10 -58 24 -173 63 -173 58z m673
-464 c107 -102 117 -109 191 -125 84 -19 134 -22 159 -11 14 7 17 3 17 -18 0
-17 11 -34 37 -53 58 -45 77 -67 112 -137 18 -36 36 -66 40 -66 4 0 16 -6 26
-14 15 -11 17 -17 8 -27 -9 -11 0 -34 36 -103 43 -82 51 -91 87 -101 l39 -11
-30 -15 c-26 -13 -30 -20 -28 -52 2 -27 -2 -37 -13 -37 -8 0 -13 -3 -11 -7 3
-5 -10 -9 -29 -10 -19 -1 -34 3 -34 8 0 6 -11 -3 -25 -19 -14 -16 -36 -32 -50
-34 -21 -5 -32 3 -61 41 -63 84 -104 153 -140 237 -20 46 -51 105 -70 131 -18
26 -36 60 -40 76 -3 15 -12 31 -20 34 -7 3 -36 51 -63 107 -43 89 -54 104 -93
125 -23 14 -64 46 -90 73 -45 46 -46 48 -22 48 16 0 41 -15 67 -40z m1117
-261 c74 -28 96 -50 104 -106 7 -52 -11 -83 -49 -83 -17 0 -27 13 -48 67 -15
37 -25 68 -23 70 2 2 13 -20 25 -49 22 -54 29 -55 55 -4 17 34 10 59 -15 53
-11 -3 -19 0 -19 7 0 14 -47 39 -59 31 -5 -2 -16 4 -26 15 -23 25 -13 25 55
-1z m1540 -154 c15 -18 37 -316 26 -358 -7 -31 -40 -37 -54 -9 -5 9 -13 53
-17 97 -4 44 -13 92 -21 107 -9 17 -12 43 -8 75 10 91 12 94 55 102 4 0 12 -6
19 -14z m-887 -159 c53 -135 52 -134 22 -142 -33 -8 -53 9 -61 55 -3 20 -12
61 -19 91 -7 30 -16 75 -19 100 l-6 45 24 -29 c13 -15 39 -69 59 -120z m-481
-105 c31 -12 36 -19 36 -47 0 -24 -4 -31 -14 -27 -8 3 -21 0 -28 -6 -12 -10
-13 -6 -6 26 6 26 5 40 -3 45 -18 11 -37 10 -37 -4 0 -6 -3 -9 -6 -5 -8 8 4
40 14 35 4 -2 23 -9 44 -17z m-32 -68 c0 -7 -4 -13 -10 -13 -5 0 -10 12 -10
28 0 21 2 24 10 12 5 -8 10 -21 10 -27z m86 -118 c1 -16 -1 -38 -4 -49 -4 -16
-8 -13 -18 17 -14 40 -9 70 10 64 6 -2 11 -17 12 -32z m1120 -60 c-9 -9 -16
-21 -16 -27 0 -6 -2 -9 -5 -6 -3 3 0 24 7 47 11 36 14 39 22 22 6 -14 4 -25
-8 -36z m-1067 -50 c12 -31 21 -60 21 -65 0 -5 -13 -25 -30 -43 -16 -19 -30
-38 -30 -43 0 -13 -32 -44 -47 -44 -21 0 -15 22 17 64 33 44 36 60 19 117 -9
30 -9 42 1 54 20 24 27 18 49 -40z m-1209 -25 c0 -5 -5 -10 -11 -10 -5 0 -7 5
-4 10 3 6 8 10 11 10 2 0 4 -4 4 -10z m1904 -35 c-3 -7 -12 -16 -19 -19 -11
-4 -12 0 -3 19 11 25 31 25 22 0z m-1514 -164 c-5 -11 -15 -23 -22 -27 -7 -5
-8 -2 -3 7 21 37 44 55 25 20z m1 -41 c-24 -22 -49 -40 -55 -39 -6 0 -2 6 8
12 11 7 33 24 50 39 17 15 33 27 36 27 3 0 -15 -18 -39 -39z m-315 -1 c4 -7
-11 -29 -35 -51 -22 -22 -41 -35 -41 -29 0 6 11 18 25 27 14 9 22 20 19 26 -8
12 3 38 15 38 5 0 13 -5 17 -11z"/>
<path d="M1325 1422 c19 -38 35 -73 35 -79 0 -6 7 -13 15 -17 8 -3 27 -31 41
-61 25 -52 29 -56 53 -49 14 4 45 8 69 9 34 1 42 -2 42 -17 0 -27 28 -22 61
11 26 26 28 33 18 58 -16 43 -60 103 -76 103 -7 0 -16 -8 -20 -17 -10 -30 -56
-73 -76 -73 -16 0 -11 10 27 50 25 27 46 54 46 60 0 20 -25 9 -45 -20 -27 -41
-33 -38 -28 14 5 38 2 46 -18 59 -21 13 -130 37 -168 37 -7 0 3 -28 24 -68z"/>
<path d="M1512 1468 c-14 -14 -16 -48 -3 -48 9 0 25 49 18 56 -2 2 -9 -2 -15
-8z"/>
<path d="M1668 1176 c-16 -5 -28 -16 -28 -24 0 -9 -6 -12 -17 -8 -10 4 -15 4
-11 1 3 -3 -12 -24 -33 -45 -26 -26 -39 -48 -39 -66 0 -28 54 -104 73 -104 16
0 67 45 67 59 0 6 5 11 12 11 6 0 8 3 5 6 -4 4 -13 1 -22 -6 -8 -7 -22 -10
-31 -6 -8 3 -24 1 -35 -4 -10 -6 -19 -9 -19 -7 0 16 46 91 80 129 47 54 46 82
-2 64z"/>
<path d="M1730 1169 c0 -5 5 -7 10 -4 6 3 10 8 10 11 0 2 -4 4 -10 4 -5 0 -10
-5 -10 -11z"/>
<path d="M1560 1159 c0 -5 5 -7 10 -4 6 3 10 8 10 11 0 2 -4 4 -10 4 -5 0 -10
-5 -10 -11z"/>
<path d="M1511 1131 c-9 -6 -10 -11 -2 -15 13 -8 31 1 31 15 0 11 -11 11 -29
0z"/>
<path d="M1735 1029 c-12 -18 3 -22 20 -5 14 14 14 16 1 16 -8 0 -18 -5 -21
-11z"/>
<path d="M1710 1010 c0 -11 4 -20 9 -20 5 0 7 9 4 20 -3 11 -7 20 -9 20 -2 0
-4 -9 -4 -20z"/>
<path d="M1826 944 c-3 -8 1 -14 9 -14 20 0 28 17 11 23 -8 3 -17 -1 -20 -9z"/>
<path d="M2354 1199 c-19 -22 -19 -22 4 -10 12 6 22 16 22 21 0 15 -5 12 -26
-11z"/>
<path d="M3776 1192 c-9 -15 -3 -123 9 -159 11 -32 12 -32 28 -15 38 41 30
174 -10 180 -12 2 -24 -1 -27 -6z"/>
<path d="M2884 1120 c3 -14 13 -61 22 -105 18 -88 27 -106 46 -87 10 10 7 28
-12 85 -25 76 -68 157 -56 107z"/>
<path d="M1410 359 c0 -5 5 -7 10 -4 6 3 10 8 10 11 0 2 -4 4 -10 4 -5 0 -10
-5 -10 -11z"/>
<path d="M7720 2005 c-52 -17 -138 -44 -190 -60 -52 -16 -102 -36 -111 -46
-12 -13 -19 -15 -27 -7 -11 11 -62 -5 -207 -66 -62 -26 -83 -56 -69 -100 4
-13 2 -17 -7 -14 -8 3 -16 18 -19 34 -5 25 -10 29 -35 28 -17 -1 -69 -14 -116
-29 -78 -24 -88 -30 -102 -61 -10 -19 -17 -40 -17 -46 0 -7 -8 -21 -18 -32
-38 -44 -139 -232 -130 -242 2 -1 37 27 78 62 146 126 389 224 555 224 53 0
69 -4 92 -24 26 -23 28 -29 28 -100 0 -83 4 -84 49 -4 17 29 23 49 16 53 -18
11 -11 26 19 36 21 8 42 32 77 92 27 45 48 84 47 87 -1 3 -4 13 -8 22 -5 13 0
17 22 20 22 2 43 23 102 101 40 54 72 99 70 101 -2 1 -47 -12 -99 -29z"/>
<path d="M268 1810 c-19 -15 -21 -22 -13 -46 13 -37 37 -41 64 -13 20 22 29
68 14 70 -5 0 -16 2 -25 4 -10 2 -28 -5 -40 -15z"/>
<path d="M7800 1810 c0 -5 4 -10 9 -10 5 0 17 -7 25 -16 9 -8 16 -11 16 -5 0
12 -28 41 -41 41 -5 0 -9 -4 -9 -10z"/>
<path d="M7926 1762 c-3 -4 4 -16 15 -25 22 -19 25 -10 5 16 -8 10 -17 14 -20
9z"/>
<path d="M538 1753 c10 -4 8 -9 -5 -21 -23 -22 -26 -39 -8 -46 9 -3 15 0 15 8
0 16 27 29 41 20 5 -3 9 2 9 10 0 9 6 16 13 17 22 1 -27 18 -53 18 -14 -1 -19
-3 -12 -6z"/>
<path d="M7760 1732 c0 -4 14 -16 30 -25 17 -10 30 -13 30 -8 0 6 -13 17 -30
26 -16 9 -30 12 -30 7z"/>
<path d="M412 1682 c-12 -2 -33 -14 -46 -27 -20 -20 -22 -26 -11 -35 8 -7 27
-35 43 -64 46 -81 51 -83 111 -35 28 22 51 45 51 49 0 5 -10 12 -22 16 -28 8
-49 34 -43 52 2 6 -1 12 -8 12 -7 0 -22 8 -33 18 -10 9 -29 16 -42 14z"/>
<path d="M7270 1633 c1 -12 141 -116 147 -109 12 11 -18 85 -40 101 -22 15
-107 21 -107 8z"/>
<path d="M715 1604 c-16 -25 -16 -25 3 -15 11 6 22 17 26 26 9 24 -10 17 -29
-11z"/>
<path d="M6473 1611 c-34 -10 -68 -23 -75 -28 -7 -6 -45 -13 -85 -16 -43 -3
-88 -14 -112 -27 l-42 -21 7 -49 c7 -54 -5 -67 -28 -30 -7 11 -16 20 -20 20
-19 0 -80 -149 -132 -320 -25 -81 -21 -121 14 -140 24 -13 67 -13 75 0 10 17
25 11 25 -10 0 -11 4 -20 10 -20 5 0 9 -10 7 -21 -1 -12 4 -24 11 -26 7 -3 12
4 12 17 0 12 4 18 11 15 15 -10 2 -57 -33 -123 -35 -67 -47 -84 -58 -77 -10 6
-24 -25 -21 -47 3 -23 -15 -23 -27 -1 -7 11 -2 38 14 86 13 39 24 79 24 88 0
25 -30 39 -80 39 -53 0 -76 -13 -84 -46 l-7 -27 -27 26 c-25 24 -36 26 -134
31 l-106 4 2 -33 c2 -19 17 -53 35 -77 31 -42 32 -43 10 -46 -12 -2 -41 -1
-65 3 -42 6 -42 6 -33 38 5 17 9 46 9 64 0 56 18 64 133 59 55 -2 107 -2 115
1 16 7 69 116 78 161 l6 29 -122 -4 c-108 -3 -125 -6 -144 -24 -12 -12 -36
-27 -54 -35 -50 -21 -41 6 12 34 39 21 45 29 61 85 9 34 18 67 19 72 3 11 176
36 243 36 25 -1 48 5 57 14 19 20 39 91 30 107 -4 6 0 16 8 22 17 13 38 49 38
66 0 11 -56 9 -130 -5 -8 -1 -44 -6 -80 -9 -36 -4 -89 -12 -117 -17 -45 -9
-53 -14 -53 -32 0 -29 -15 -51 -29 -43 -6 4 -11 18 -11 32 0 23 -3 25 -42 22
l-42 -3 -23 -68 c-13 -37 -46 -154 -73 -260 -60 -236 -60 -237 -71 -237 -4 0
-13 8 -19 18 -9 13 -10 8 -6 -24 4 -27 1 -52 -9 -70 l-15 -29 0 30 c0 41 2
104 4 140 0 17 8 37 17 45 19 18 70 196 74 258 2 23 8 49 14 56 9 11 41 113
41 130 0 10 -157 -7 -167 -17 -13 -13 -69 -230 -97 -377 -9 -47 -25 -112 -35
-145 l-19 -60 -2 45 c-2 37 -3 41 -10 20 -6 -22 -8 -21 -11 15 l-4 40 -17 -60
-18 -60 6 48 c3 27 19 103 35 170 22 87 28 134 24 165 -5 33 -3 42 8 42 19 0
27 22 34 95 l5 60 -72 -5 -73 -5 -29 -115 c-16 -63 -30 -135 -31 -160 -2 -25
-6 -51 -10 -57 -5 -7 -14 -53 -22 -101 -17 -106 -38 -166 -30 -87 4 38 2 45
-5 28 -30 -69 -30 -69 -24 -13 3 30 13 91 22 135 8 44 16 100 17 125 1 25 8
57 15 72 17 35 5 94 -25 124 -22 22 -32 24 -122 23 -131 0 -162 -12 -190 -69
-44 -89 -56 -152 -69 -360 -3 -52 -9 -117 -14 -145 -10 -59 11 -182 41 -233
10 -18 19 -39 19 -45 0 -19 66 -117 89 -134 28 -19 156 -30 175 -14 19 16 31
82 16 91 -6 4 -8 14 -4 24 5 14 9 15 15 4 6 -9 9 -8 9 8 0 11 15 35 33 52 l34
33 34 -36 c35 -36 63 -47 53 -20 -5 11 -2 13 10 9 9 -3 16 -12 16 -20 0 -9 11
-14 31 -14 16 0 60 -5 97 -11 49 -8 75 -8 96 0 28 11 28 11 10 39 -9 15 -33
41 -52 58 -21 18 -33 35 -28 42 11 19 26 14 35 -11 5 -12 23 -38 40 -56 17
-18 28 -37 25 -42 -3 -5 1 -9 9 -9 7 0 26 -13 42 -29 29 -32 77 -47 180 -61
33 -4 100 -15 149 -24 98 -18 99 -18 127 47 6 15 17 27 23 27 7 0 34 -23 61
-51 55 -56 111 -89 149 -89 14 0 51 -7 83 -15 69 -18 115 -19 131 -3 19 19 86
39 93 27 7 -12 30 237 27 292 -1 27 -6 36 -17 34 -9 -1 -22 2 -29 8 -9 7 -16
5 -25 -7 -11 -15 -14 -15 -35 -1 -26 19 -28 37 -6 70 16 25 17 25 58 -12 8 -7
16 -9 20 -6 3 4 13 -2 22 -13 8 -10 12 -12 8 -4 -6 12 -4 13 6 3 10 -9 17 -10
27 -2 29 25 6 53 -36 42 -12 -3 -27 2 -36 11 -9 8 -22 19 -29 23 -21 12 -1
119 29 163 29 42 40 105 26 143 -13 33 -60 56 -135 64 -87 10 -92 26 -47 137
38 94 62 118 115 114 52 -4 56 -24 22 -103 -15 -32 -26 -59 -26 -61 0 -10 178
-1 195 10 11 8 33 40 49 72 15 33 43 90 62 128 42 83 44 133 10 165 -33 31
-95 35 -173 12z m-1679 -397 c17 -17 22 -59 6 -49 -5 3 -10 15 -10 26 0 30
-42 21 -53 -11 -7 -19 -3 -39 16 -80 l25 -55 7 43 c4 23 10 41 12 38 6 -6 -27
-254 -38 -286 -5 -18 -6 -12 -2 18 4 27 2 42 -5 42 -6 0 -14 16 -18 36 -5 25
-10 32 -17 25 -13 -13 -11 -135 3 -139 12 -4 13 -32 1 -32 -28 0 -33 32 -27
167 9 182 15 219 38 248 22 29 40 31 62 9z m846 -365 c0 -6 -4 -7 -10 -4 -5 3
-10 11 -10 16 0 6 5 7 10 4 6 -3 10 -11 10 -16z m74 -98 c-6 -6 -34 20 -34 32
0 6 8 2 19 -9 10 -10 17 -21 15 -23z m70 -110 c-6 -63 -4 -74 17 -108 13 -21
24 -42 25 -48 0 -5 4 -18 9 -28 8 -20 -9 -67 -25 -67 -5 0 -10 4 -10 9 0 5
-20 35 -43 67 l-44 57 18 58 c10 32 22 66 28 76 5 10 12 26 15 36 12 38 17 13
10 -52z m556 -51 c68 -18 71 -23 64 -99 -4 -36 -8 -68 -10 -70 -2 -3 -20 14
-38 36 -19 22 -57 55 -85 74 -43 29 -49 38 -44 59 9 39 12 41 41 26 15 -8 47
-19 72 -26z m-1546 14 c3 -8 2 -12 -4 -9 -6 3 -10 10 -10 16 0 14 7 11 14 -7z
m766 -68 c0 -2 3 -12 6 -20 4 -12 2 -15 -9 -10 -21 8 -30 34 -12 34 8 0 15 -2
15 -4z m-677 -44 c-5 -12 -7 -12 -15 2 -11 20 1 44 12 25 5 -6 6 -19 3 -27z
m242 18 c3 -6 -1 -7 -9 -4 -18 7 -21 14 -7 14 6 0 13 -4 16 -10z m-245 -119
l-1 -26 -14 25 c-20 35 -20 57 0 40 8 -7 15 -24 15 -39z"/>
<path d="M4736 1019 c4 -19 10 -50 14 -69 7 -32 8 -30 9 21 1 39 -4 60 -14 69
-13 11 -14 8 -9 -21z"/>
<path d="M746 1591 c-11 -12 -27 -21 -37 -21 -16 0 -198 -160 -207 -182 -2 -5
14 -8 36 -8 22 0 47 -2 55 -6 15 -5 119 73 211 160 54 50 53 63 -5 72 -27 5
-38 1 -53 -15z"/>
<path d="M7530 1591 c0 -10 53 -51 66 -51 4 0 -5 14 -21 30 -29 30 -45 38 -45
21z"/>
<path d="M6980 1557 c-25 -12 -47 -23 -50 -25 -6 -4 39 -42 50 -42 7 0 60 74
60 85 0 9 -13 5 -60 -18z"/>
<path d="M819 1528 c-24 -17 -52 -42 -63 -55 -10 -13 -42 -42 -72 -64 l-53
-39 32 -55 c18 -30 38 -55 46 -55 18 0 135 95 208 170 27 27 26 64 -2 107 -21
31 -44 29 -96 -9z"/>
<path d="M6851 1484 c-17 -14 -31 -30 -31 -35 0 -4 14 -24 30 -42 17 -19 30
-37 30 -41 0 -14 -39 -4 -70 19 -19 14 -39 25 -46 25 -21 0 -38 -31 -36 -65 2
-22 -3 -37 -13 -43 -14 -7 -9 -16 26 -54 l43 -45 34 41 c19 22 40 52 46 66 5
14 25 43 42 65 18 22 34 47 36 55 2 8 10 21 18 27 13 11 12 16 -9 33 -32 27
-63 25 -100 -6z m80 -11 c13 -16 12 -17 -3 -4 -17 13 -22 21 -14 21 2 0 10 -8
17 -17z"/>
<path d="M7518 1483 c-10 -2 -18 -9 -18 -14 0 -6 -4 -7 -10 -4 -6 4 -10 -8
-10 -29 0 -35 18 -61 109 -158 36 -38 42 -22 15 36 -18 36 -13 73 8 60 14 -9
88 -15 88 -7 0 9 -24 48 -38 63 -52 53 -92 67 -144 53z"/>
<path d="M930 1415 c-8 -9 -8 -15 -2 -15 12 0 26 19 19 26 -2 2 -10 -2 -17
-11z"/>
<path d="M1950 1370 c0 -5 7 -7 15 -4 8 4 15 8 15 10 0 2 -7 4 -15 4 -8 0 -15
-4 -15 -10z"/>
<path d="M6283 1365 c-31 -22 -34 -58 -6 -94 14 -17 28 -31 32 -31 11 0 51 94
51 119 0 16 -6 21 -28 21 -15 0 -37 -7 -49 -15z"/>
<path d="M4062 1324 l-22 -15 4 -352 c2 -194 7 -364 11 -379 7 -27 10 -28 65
-28 64 0 70 6 70 83 0 23 4 36 10 32 9 -5 14 21 13 62 -1 7 4 10 9 7 6 -4 8 3
4 17 -4 13 3 6 15 -15 16 -30 21 -55 20 -103 -1 -35 -2 -69 -4 -76 -1 -8 20
-13 69 -15 l72 -3 7 37 c3 20 11 118 16 218 5 99 15 253 22 341 8 87 12 167
10 176 -6 20 -32 29 -86 29 -52 0 -60 -25 -56 -175 1 -66 1 -140 0 -165 l-2
-45 -24 80 c-29 98 -92 286 -97 289 -1 2 -26 6 -53 10 -38 4 -56 2 -73 -10z"/>
<path d="M939 1286 c-12 -18 -34 -38 -50 -45 -15 -6 -48 -32 -74 -56 l-47 -43
23 -41 c42 -76 49 -78 103 -26 26 25 55 45 63 45 31 0 92 33 99 54 11 33 12
56 3 50 -5 -3 -10 4 -10 15 -3 49 -18 68 -56 74 -27 4 -35 0 -54 -27z"/>
<path d="M2010 1289 c0 -5 5 -7 10 -4 6 3 10 8 10 11 0 2 -4 4 -10 4 -5 0 -10
-5 -10 -11z"/>
<path d="M2600 1278 c0 -19 2 -20 10 -8 13 19 13 30 0 30 -5 0 -10 -10 -10
-22z"/>
<path d="M2654 1265 c-9 -38 2 -41 21 -6 14 27 14 31 0 31 -8 0 -17 -11 -21
-25z"/>
<path d="M738 1262 c-32 -20 -36 -32 -9 -32 10 0 26 11 35 25 19 29 13 30 -26
7z"/>
<path d="M5890 1251 c0 -5 5 -13 10 -16 6 -3 10 -2 10 4 0 5 -4 13 -10 16 -5
3 -10 2 -10 -4z"/>
<path d="M5930 1255 c0 -13 35 -75 42 -75 12 0 30 51 24 67 -5 12 -66 20 -66
8z"/>
<path d="M5220 1231 c0 -12 5 -21 10 -21 6 0 10 6 10 14 0 8 -4 18 -10 21 -5
3 -10 -3 -10 -14z"/>
<path d="M5759 1243 c-27 -3 -38 -10 -42 -25 -3 -11 -3 -17 0 -14 3 3 28 -15
56 -39 47 -41 53 -44 94 -38 34 4 48 2 64 -13 17 -16 22 -16 29 -4 23 37 11
60 -52 100 -36 23 -74 39 -88 38 -14 -1 -41 -3 -61 -5z"/>
<path d="M5170 1220 c0 -5 5 -10 11 -10 5 0 7 5 4 10 -3 6 -8 10 -11 10 -2 0
-4 -4 -4 -10z"/>
<path d="M6701 1223 c1 -15 58 -53 64 -43 3 5 -1 10 -9 10 -9 0 -16 4 -16 10
0 5 -9 14 -20 20 -11 6 -20 7 -19 3z"/>
<path d="M6400 1200 c0 -5 5 -10 10 -10 6 0 10 5 10 10 0 6 -4 10 -10 10 -5 0
-10 -4 -10 -10z"/>
<path d="M6435 1201 c-3 -5 -1 -12 5 -16 6 -3 19 -25 30 -48 l19 -42 -32 36
c-18 20 -44 39 -59 43 -16 3 -28 11 -28 16 0 6 -11 10 -25 10 -23 0 -25 -2
-14 -22 15 -29 117 -126 149 -143 14 -7 42 -13 62 -12 l38 1 -33 28 c-17 15
-26 27 -19 28 6 0 12 -4 12 -10 0 -5 9 -10 19 -10 11 0 26 -8 33 -18 19 -27
52 -32 79 -12 l23 18 -34 40 c-19 22 -42 43 -51 47 -9 3 -27 21 -40 40 -22 32
-28 35 -76 35 -28 0 -54 -4 -58 -9z"/>
<path d="M2652 1178 c-7 -7 -12 -17 -12 -24 0 -7 -4 -14 -8 -16 -4 -1 -18 -17
-30 -35 l-23 -32 32 -31 32 -30 29 27 c30 29 37 77 18 127 -11 29 -20 32 -38
14z"/>
<path d="M5210 1166 c0 -22 3 -27 11 -19 8 8 8 16 0 30 -9 16 -10 14 -11 -11z"/>
<path d="M5751 1149 c9 -13 25 -26 35 -28 16 -3 17 -1 5 13 -8 10 -24 22 -35
28 -20 11 -20 10 -5 -13z"/>
<path d="M6727 1143 c-4 -3 -7 -11 -7 -17 0 -6 5 -5 12 2 6 6 9 14 7 17 -3 3
-9 2 -12 -2z"/>
<path d="M1098 1127 c-37 -16 -128 -97 -128 -114 0 -8 -4 -12 -9 -9 -10 6 -41
-65 -46 -104 -2 -14 7 -45 20 -70 13 -25 29 -57 36 -72 9 -21 18 -26 38 -24
68 10 89 19 95 40 5 16 8 18 15 8 6 -10 10 -7 15 13 5 21 10 24 20 16 14 -11
79 -4 72 8 -3 4 9 13 25 20 17 7 33 19 36 27 5 13 -59 125 -83 145 -10 8 -23
3 -55 -25 -23 -19 -45 -33 -50 -31 -8 6 13 54 43 97 23 33 23 51 1 71 -15 12
-23 13 -45 4z"/>
<path d="M3413 1119 c-24 -24 -13 -29 66 -29 61 0 80 3 85 15 4 11 -1 15 -17
15 -12 0 -44 3 -72 6 -34 4 -54 2 -62 -7z"/>
<path d="M3581 1104 c0 -11 3 -14 6 -6 3 7 2 16 -1 19 -3 4 -6 -2 -5 -13z"/>
<path d="M5422 1095 c0 -16 2 -22 5 -12 2 9 2 23 0 30 -3 6 -5 -1 -5 -18z"/>
<path d="M2087 1077 c-3 -9 1 -21 9 -28 20 -17 25 -8 10 20 -10 19 -14 20 -19
8z"/>
<path d="M5158 1025 c-5 -41 17 -70 33 -44 11 18 11 23 -3 54 -16 35 -25 31
-30 -10z"/>
<path d="M5916 1031 c-4 -6 5 -28 20 -51 19 -28 34 -40 51 -40 20 0 22 3 14
18 -17 31 -78 84 -85 73z"/>
<path d="M5391 989 c-7 -22 -10 -43 -7 -46 2 -3 10 14 16 37 15 55 7 63 -9 9z"/>
<path d="M870 1000 c-13 -8 -12 -10 3 -10 9 0 17 5 17 10 0 12 -1 12 -20 0z"/>
<path d="M2687 978 c-16 -12 -16 -15 0 -50 23 -48 38 -43 38 12 0 47 -11 58
-38 38z"/>
<path d="M6423 964 c-14 -30 -8 -48 13 -40 8 3 11 0 7 -10 -3 -8 1 -14 9 -14
8 0 29 -13 48 -30 25 -23 36 -27 47 -19 23 20 14 45 -22 65 -19 10 -38 27 -41
37 -4 13 -12 17 -26 14 -14 -4 -18 -2 -14 9 10 25 -9 15 -21 -12z"/>
<path d="M5892 953 c15 -15 30 -25 32 -22 10 9 -25 49 -42 49 -13 0 -11 -6 10
-27z"/>
<path d="M2151 954 c0 -11 3 -14 6 -6 3 7 2 16 -1 19 -3 4 -6 -2 -5 -13z"/>
<path d="M6030 962 c0 -12 79 -102 90 -102 4 0 10 9 13 20 3 13 -4 26 -27 43
-42 33 -76 50 -76 39z"/>
<path d="M5350 941 c0 -5 5 -13 10 -16 6 -3 10 -2 10 4 0 5 -4 13 -10 16 -5 3
-10 2 -10 -4z"/>
<path d="M1140 758 c0 -5 6 -8 14 -8 9 0 13 -7 11 -20 -5 -27 31 -27 38 -1 4
15 1 18 -12 13 -13 -5 -14 -3 -3 10 11 14 9 16 -18 14 -16 0 -30 -4 -30 -8z"/>
<path d="M1115 750 c-3 -5 -1 -10 4 -10 6 0 11 5 11 10 0 6 -2 10 -4 10 -3 0
-8 -4 -11 -10z"/>
<path d="M1080 736 c0 -2 7 -7 16 -10 8 -3 12 -2 9 4 -6 10 -25 14 -25 6z"/>
<path d="M1147 699 c7 -7 15 -10 18 -7 3 3 -2 9 -12 12 -14 6 -15 5 -6 -5z"/>
<path d="M6820 541 c-14 -10 -116 -80 -227 -156 -112 -75 -203 -141 -203 -146
0 -5 24 8 53 29 52 38 90 62 101 62 4 0 4 -15 0 -32 -3 -18 -7 -54 -9 -80 -3
-41 0 -50 22 -66 14 -10 24 -24 21 -32 -2 -8 -15 -3 -38 16 -19 16 -29 21 -21
11 18 -23 77 -65 67 -48 -6 10 -3 11 13 6 25 -8 28 -2 36 84 3 36 8 67 10 71
2 4 7 35 11 71 3 35 10 71 15 80 5 10 39 38 76 65 94 66 117 84 107 83 -5 0
-20 -8 -34 -18z"/>
<path d="M6945 506 c76 -71 184 -150 193 -141 4 3 0 11 -9 16 -9 5 -52 37 -95
72 -118 94 -160 120 -89 53z"/>
<path d="M1305 495 c0 -26 4 -35 16 -35 9 0 20 7 23 16 8 22 8 24 -5 24 -7 0
-17 7 -23 15 -9 12 -11 8 -11 -20z"/>
<path d="M1346 506 c21 -15 30 -14 19 3 -3 6 -14 11 -23 11 -13 0 -13 -2 4
-14z"/>
<path d="M1250 460 c0 -5 -7 -10 -15 -10 -7 0 -18 -7 -23 -16 -11 -21 -59 -41
-89 -39 -28 2 -29 -5 -3 -38 14 -18 26 -24 38 -20 25 10 44 31 37 42 -3 5 0
13 6 17 8 5 10 2 5 -7 -4 -8 -1 -5 8 5 8 10 13 22 11 27 -3 4 4 10 15 14 17 5
30 35 15 35 -3 0 -5 -4 -5 -10z"/>
<path d="M2120 423 c0 -4 5 -15 10 -23 8 -13 10 -13 10 2 0 9 -4 20 -10 23 -5
3 -10 3 -10 -2z"/>
<path d="M1172 160 c0 -14 2 -19 5 -12 2 6 2 18 0 25 -3 6 -5 1 -5 -13z"/>
<path d="M6600 86 c0 -2 8 -10 18 -17 15 -13 16 -12 3 4 -13 16 -21 21 -21 13z"/>
</g>
</svg>
